<?xml version="1.0" encoding="UTF-8" standalone="no"?>
<!DOCTYPE svg PUBLIC "-//W3C//DTD SVG 1.1//EN" "http://www.w3.org/Graphics/SVG/1.1/DTD/svg11.dtd">
<svg version="1.1" xmlns="http://www.w3.org/2000/svg" xmlns:xlink="http://www.w3.org/1999/xlink" preserveAspectRatio="xMidYMid meet" viewBox="105.00000000000001 107.25000000000001 83.99999999999999 83.99999999999999" width="80" height="80"><defs><path d="M106 144.75C106 124.59 123.91 108.25 146 108.25C168.09 108.25 186 124.59 186 144.75C186 164.92 168.09 181.26 146 181.26C140.64 181.26 135.52 180.3 130.84 178.55C129.85 179.2 124.92 182.43 116.04 188.25L118.34 171.12C110.11 160.45 106 151.67 106 144.75Z" id="d7WPMPndd"></path><path d="M139.32 132.5C139.32 136.58 135.75 139.89 131.36 139.89C126.97 139.89 123.41 136.58 123.41 132.5C123.41 128.42 126.97 125.11 131.36 125.11C135.75 125.11 139.32 128.42 139.32 132.5Z" id="g2hpmSnIK7"></path><path d="M169.55 132.5C169.55 136.58 165.98 139.89 161.59 139.89C157.2 139.89 153.64 136.58 153.64 132.5C153.64 128.42 157.2 125.11 161.59 125.11C165.98 125.11 169.55 128.42 169.55 132.5Z" id="a56WJPkPt"></path><path d="M170.95 147.43L169.72 150.68L167.67 154.43L161.42 158.18L155.29 160.43L146.9 161.93L140.22 161.18L133.67 159.68L128.17 156.93L124.31 153.68L122.37 147.43" id="b2briAH2sf"></path></defs><g><g><use xlink:href="#d7WPMPndd" opacity="1" fill="#cb9600" fill-opacity="0"></use><g><use xlink:href="#d7WPMPndd" opacity="1" fill-opacity="0" stroke="#ffffff" stroke-width="2" stroke-opacity="1"></use></g></g><g><use xlink:href="#g2hpmSnIK7" opacity="1" fill="#ffffff" fill-opacity="1"></use><g><use xlink:href="#g2hpmSnIK7" opacity="1" fill-opacity="0" stroke="#ffffff" stroke-width="2" stroke-opacity="1"></use></g></g><g><use xlink:href="#a56WJPkPt" opacity="1" fill="#ffffff" fill-opacity="1"></use><g><use xlink:href="#a56WJPkPt" opacity="1" fill-opacity="0" stroke="#ffffff" stroke-width="2" stroke-opacity="1"></use></g></g><g><g><use xlink:href="#b2briAH2sf" opacity="1" fill-opacity="0" stroke="#ffffff" stroke-width="3" stroke-opacity="1"></use></g></g></g></svg>